<svg width="20" height="21" viewBox="0 0 20 21" fill="none" xmlns="http://www.w3.org/2000/svg">
<path d="M14.6086 8.37163C14.8527 8.12755 14.8527 7.73182 14.6086 7.48775C14.3645 7.24367 13.9688 7.24367 13.7247 7.48775L14.6086 8.37163ZM8.33332 13.763L7.89138 14.205C8.13546 14.449 8.53117 14.449 8.77525 14.205L8.33332 13.763ZM6.27523 10.8211C6.03114 10.577 5.63542 10.577 5.39134 10.8211C5.14726 11.0652 5.14727 11.4609 5.39134 11.7049L6.27523 10.8211ZM13.7247 7.48775L7.89138 13.3211L8.77525 14.205L14.6086 8.37163L13.7247 7.48775ZM5.39134 11.7049L7.89138 14.205L8.77525 13.3211L6.27523 10.8211L5.39134 11.7049ZM16.875 10.4297C16.875 14.2266 13.7969 17.3047 10 17.3047V18.5547C14.4873 18.5547 18.125 14.917 18.125 10.4297H16.875ZM10 17.3047C6.20304 17.3047 3.125 14.2266 3.125 10.4297H1.875C1.875 14.917 5.51268 18.5547 10 18.5547V17.3047ZM3.125 10.4297C3.125 6.63273 6.20304 3.55469 10 3.55469V2.30469C5.51268 2.30469 1.875 5.94237 1.875 10.4297H3.125ZM10 3.55469C13.7969 3.55469 16.875 6.63273 16.875 10.4297H18.125C18.125 5.94237 14.4873 2.30469 10 2.30469V3.55469Z" fill="white"/>
</svg>
