<svg width="24" height="25" viewBox="0 0 24 25" fill="none" xmlns="http://www.w3.org/2000/svg">
<path d="M4 18.9297V14.9297C4 14.3774 4.44772 13.9297 5 13.9297H19C19.5523 13.9297 20 14.3774 20 14.9297V18.9297M4 18.9297C2.89543 18.9297 2 19.8251 2 20.9297C2 22.0343 2.89543 22.9297 4 22.9297C5.10457 22.9297 6 22.0343 6 20.9297C6 19.8251 5.10457 18.9297 4 18.9297ZM20 18.9297C18.8954 18.9297 18 19.8251 18 20.9297C18 22.0343 18.8954 22.9297 20 22.9297C21.1046 22.9297 22 22.0343 22 20.9297C22 19.8251 21.1046 18.9297 20 18.9297ZM12 18.9297C10.8954 18.9297 10 19.8251 10 20.9297C10 22.0343 10.8954 22.9297 12 22.9297C13.1046 22.9297 14 22.0343 14 20.9297C14 19.8251 13.1046 18.9297 12 18.9297ZM12 18.9297V8.9297M10 8.92969H14C14.5523 8.92969 15 8.48197 15 7.92969V3.92969C15 3.37741 14.5523 2.92969 14 2.92969H10C9.44772 2.92969 9 3.37741 9 3.92969V7.92969C9 8.48197 9.44772 8.92969 10 8.92969Z" stroke="#181A1E" stroke-width="1.5" stroke-linecap="round" stroke-linejoin="round"/>
</svg>
