<svg width="45" height="45" viewBox="0 0 45 45" fill="none" xmlns="http://www.w3.org/2000/svg">
<g clip-path="url(#clip0_74_1240)">
<path d="M4.74304 26.4525C6.99649 26.4525 8.81793 24.6275 8.81793 22.3759C8.81793 20.1251 6.99649 18.2993 4.74304 18.2993C2.49147 18.2992 0.666504 20.1251 0.666504 22.3759C0.666504 24.6275 2.49147 26.4525 4.74304 26.4525Z" fill="#181A1E"/>
<path d="M4.73878 27.8428C2.54686 27.8428 0.757812 29.6199 0.757812 31.8229V36.7719H5.47372L8.51659 30.5562C7.99513 28.9704 6.50566 27.8428 4.73878 27.8428Z" fill="#181A1E"/>
<path d="M11.4117 18.6586C13.4296 18.6586 15.0624 17.0249 15.0624 15.0062C15.0624 12.991 13.4296 11.3547 11.4117 11.3547C9.39479 11.3547 7.76025 12.991 7.76025 15.0062C7.76025 17.0249 9.39487 18.6586 11.4117 18.6586Z" fill="#181A1E"/>
<path d="M7.83643 27.119V27.906H9.81497L13.4341 20.5304C12.8596 20.1258 12.1674 19.9031 11.4119 19.9031C10.9015 19.9031 10.4116 20.0089 9.9755 20.2009C10.252 20.8718 10.4116 21.605 10.4116 22.3723C10.4116 24.3629 9.38992 26.1075 7.83643 27.119Z" fill="#181A1E"/>
<path d="M22.236 11.5868C24.2538 11.5868 25.8874 9.95311 25.8874 7.93444C25.8874 5.91921 24.2538 4.28296 22.236 4.28296C20.219 4.28296 18.5845 5.91921 18.5845 7.93444C18.5845 9.95311 20.219 11.5868 22.236 11.5868Z" fill="#181A1E"/>
<path d="M22.2361 12.8286C20.2644 12.8286 18.6631 14.4283 18.6631 16.4025V17.9516H25.809V16.4025C25.8091 14.4283 24.2104 12.8286 22.2361 12.8286Z" fill="#181A1E"/>
<path d="M15.8044 19.3252L6.37598 38.5644V40.5771H38.9571V38.5644L29.5287 19.3252H15.8044Z" fill="#181A1E"/>
<path d="M40.59 26.4525C42.8418 26.4525 44.6667 24.6275 44.6667 22.3759C44.6667 20.1251 42.8418 18.2993 40.59 18.2993C38.3367 18.2993 36.5151 20.1251 36.5151 22.3759C36.5151 24.6275 38.3367 26.4525 40.59 26.4525Z" fill="#181A1E"/>
<path d="M40.5943 27.8428C38.8274 27.8428 37.338 28.9704 36.8164 30.5563L39.8594 36.7719H44.5753V31.823C44.5753 29.6199 42.7862 27.8428 40.5943 27.8428Z" fill="#181A1E"/>
<path d="M33.9211 18.6586C35.9382 18.6586 37.5727 17.0249 37.5727 15.0062C37.5727 12.991 35.9382 11.3547 33.9211 11.3547C31.9033 11.3547 30.2705 12.991 30.2705 15.0062C30.2705 17.0249 31.9033 18.6586 33.9211 18.6586Z" fill="#181A1E"/>
<path d="M33.9209 19.9031C33.1656 19.9031 32.4734 20.1258 31.8989 20.5304L35.518 27.906H37.4966V27.119C35.9431 26.1075 34.9214 24.3629 34.9214 22.3723C34.9214 21.605 35.081 20.8718 35.3576 20.2009C34.9213 20.0088 34.4314 19.9031 33.9209 19.9031Z" fill="#181A1E"/>
</g>
<defs>
<clipPath id="clip0_74_1240">
<rect width="44" height="44" fill="white" transform="translate(0.666504 0.429932)"/>
</clipPath>
</defs>
</svg>
