<svg width="24" height="25" viewBox="0 0 24 25" fill="none" xmlns="http://www.w3.org/2000/svg">
<path d="M22 12.9297C22 18.4525 17.5228 22.9297 12 22.9297M22 12.9297C22 7.40684 17.5228 2.92969 12 2.92969M22 12.9297H2M12 22.9297C6.47715 22.9297 2 18.4525 2 12.9297M12 22.9297C14.4744 20.4046 16 16.7442 16 12.9296C16 9.11495 14.4744 5.45476 12 2.92969M12 22.9297C9.52563 20.4046 8 16.7442 8 12.9296C8 9.11495 9.52563 5.45476 12 2.92969M12 2.92969C6.47715 2.92969 2 7.40684 2 12.9297" stroke="#181A1E" stroke-width="1.5" stroke-linecap="round" stroke-linejoin="round"/>
</svg>
