<svg width="44" height="45" viewBox="0 0 44 45" fill="none" xmlns="http://www.w3.org/2000/svg">
<path d="M44 35.0285V43.4173H0V35.0285H35.709C35.7256 33.2537 35.4302 31.2476 34.307 29.767C33.3167 28.4617 31.7918 27.7283 29.7713 27.575C29.6063 27.8875 29.2885 28.107 28.9103 28.107H27.2183C26.6729 28.107 26.2307 27.6653 26.2307 27.1194C26.2307 26.5736 26.6729 26.1313 27.2183 26.1313H28.9103C29.352 26.1313 29.712 26.4267 29.8381 26.8262C32.0776 26.9961 33.7825 27.8287 34.9078 29.313C36.1577 30.9624 36.4861 33.1292 36.4706 35.0269H44V35.0285ZM22 19.8016C27.0698 19.8016 31.1798 15.6922 31.1798 10.6218C31.1798 5.55154 27.0698 1.44263 22 1.44263C16.9297 1.44263 12.8202 5.55207 12.8202 10.6224C12.8202 15.6927 16.9297 19.8016 22 19.8016ZM33.243 30.6536C32.5861 29.7868 31.6167 29.2618 30.2921 29.0572C29.899 29.3547 29.4172 29.5229 28.9103 29.5229H27.2183C25.938 29.5229 24.8954 28.4809 24.8954 27.1996C24.8954 25.9193 25.9375 24.8767 27.2183 24.8767H28.9103C29.5817 24.8767 30.1986 25.1667 30.6264 25.6469C32.632 25.9204 34.2509 26.7034 35.4558 27.9783C35.4521 27.9308 35.4537 27.8821 35.4494 27.8346L35.0269 25.7329C33.9961 22.4198 31.3106 19.8331 27.9388 18.9411C26.3792 20.3961 24.2951 21.2934 22 21.2934C19.7044 21.2934 17.6192 20.3955 16.0612 18.9411C11.7232 20.0879 8.51051 24.035 8.51051 28.7271V33.7707H34.315C34.1798 32.4744 33.8167 31.4099 33.243 30.6536Z" fill="#181A1E"/>
</svg>
