<svg width="45" height="45" viewBox="0 0 45 45" fill="none" xmlns="http://www.w3.org/2000/svg">
<path d="M31.1904 29.1035C32.4187 28.2969 34.032 29.1769 34.032 30.6435V33.0085C34.032 35.3369 32.217 37.8302 30.0354 38.5635L24.187 40.5069C23.1604 40.8552 21.492 40.8552 20.4837 40.5069L14.6353 38.5635C12.4353 37.8302 10.6387 35.3369 10.6387 33.0085V30.6252C10.6387 29.1769 12.252 28.2969 13.462 29.0852L17.2387 31.5419C18.687 32.5135 20.5204 32.9902 22.3537 32.9902C24.187 32.9902 26.0204 32.5135 27.4687 31.5419L31.1904 29.1035Z" fill="#181A1E"/>
<path d="M36.9627 12.2706L25.9811 5.06561C24.0011 3.76394 20.7377 3.76394 18.7577 5.06561L7.72113 12.2706C4.1828 14.5623 4.1828 19.7506 7.72113 22.0606L10.6545 23.9673L18.7577 29.2473C20.7377 30.549 24.0011 30.549 25.9811 29.2473L34.0294 23.9673L36.5411 22.3173V27.9273C36.5411 28.679 37.1644 29.3023 37.9161 29.3023C38.6677 29.3023 39.2911 28.679 39.2911 27.9273V18.9073C40.0244 16.5423 39.2727 13.7923 36.9627 12.2706Z" fill="#181A1E"/>
</svg>
